# xmcd CD database file
#
# Track frame offsets:
#	150
#	17290
#	38111
#	57811
#	79212
#	96324
#	116798
#	139331
#	156765
#	173211
#	193839
#	202157
#	220886
#
# Disc length: 3195 seconds
#
# Revision: 0
# Processed by: cddbd v1.5.1PL2 Copyright (c) Steve Scherf et al.
# Submitted via: CDex 1.51
#
DISCID=ba0c790d
DTITLE=Qlair - Archives CD2
DYEAR=2005
DGENRE=J-Pop
TTITLE0=Spling Lover大作戦
TTITLE1=眩しくて
TTITLE2=お引っ越し
TTITLE3=君住む街
TTITLE4=Citron
TTITLE5=タヒチアン ラブ
TTITLE6=泣かないでエンジェル
TTITLE7=思い出のアルバム
TTITLE8=パジャマでドライブ
TTITLE9=一緒に見た風
TTITLE10=In Your Eyes
TTITLE11=秋の貝殻
TTITLE12=新しいシャツ
EXTD=YEAR: 2005
EXTT0=
EXTT1=
EXTT2=
EXTT3=
EXTT4=
EXTT5=
EXTT6=
EXTT7=
EXTT8=
EXTT9=
EXTT10=
EXTT11=
EXTT12=
PLAYORDER=
